# xmcd
#
# Track frame offsets:
#	150
#	14205
#	28285
#	44244
#	60425
#	75099
#	91750
#	105654
#	119125
#	135609
#	152003
#	166003
#	184952
#	200030
#
# Disc length: 2882 seconds
#
# Revision: 1
# Processed by: cddbd v1.4b42PL1 Copyright (c) Steve Scherf et al.
# Submitted via: audiograbber 1.80
#
DISCID=bf0b400e
DTITLE=Tracy Lawrence - The Best Of Tracy Lawrence
DYEAR=1900
DGENRE=
TTITLE0=Time Marches On
TTITLE1=If The The World Had A Front Porch
TTITLE2=Texas Tornado
TTITLE3=Stars Over Texas
TTITLE4=Her Old Stompin Ground
TTITLE5=Sticks And Stones
TTITLE6=While You Sleep
TTITLE7=Renegades, Rebels, And Rogues
TTITLE8=I See It Now
TTITLE9=Can't Break It To My Heart
TTITLE10=Alibis
TTITLE11=If The Good Die Young
TTITLE12=Is That A Tear
TTITLE13=Better Man, Better Off
EXTD=
EXTT0=
EXTT1=
EXTT2=
EXTT3=
EXTT4=
EXTT5=
EXTT6=
EXTT7=
EXTT8=
EXTT9=
EXTT10=
EXTT11=
EXTT12=
EXTT13=
PLAYORDER=
